<svg width="370" height="270" viewBox="0 0 370 270" fill="none" xmlns="http://www.w3.org/2000/svg">
<ellipse cx="185" cy="255.246" rx="185" ry="14.7541" fill="#FF7A45" fill-opacity="0.8"/>
<g clip-path="url(#clip0)">
<path d="M304.422 50.2181V30.5482C298.968 29.1449 293.833 26.4872 289.344 22.7436C284.856 18.9999 281.11 14.2521 278.345 8.80121L278.345 8.80157C277.018 9.90344 275.41 10.4965 273.759 10.4925H259.818C263.538 20.8802 269.606 30.0049 277.426 36.9699C285.247 43.9349 294.55 48.5005 304.422 50.2181Z" fill="#E6E6E6"/>
<path d="M304.422 29.4209V10.525C304.422 9.14276 304.179 7.77394 303.707 6.49679C303.235 5.21964 302.543 4.0592 301.671 3.08178C300.799 2.10435 299.763 1.3291 298.623 0.800313C297.483 0.271529 296.261 -0.00042108 295.027 4.89378e-07H281.492V1.82463C281.494 2.99489 281.283 4.15328 280.873 5.22955C280.463 6.30582 279.862 7.27754 279.106 8.08577C281.78 13.4093 285.411 18.0538 289.768 21.726C294.125 25.3982 299.115 28.0183 304.422 29.4209Z" fill="#E6E6E6"/>
<path d="M239.314 10.4925H230.596C228.545 10.4919 226.578 9.5783 225.127 7.9528C223.677 6.32729 222.862 4.12296 222.863 1.82463V3.8153e-08H210.163C208.929 -0.000117651 207.707 0.272041 206.568 0.800933C205.428 1.32982 204.392 2.10509 203.52 3.08245C202.647 4.05982 201.956 5.22014 201.483 6.49715C201.011 7.77416 200.768 9.14285 200.769 10.525V244.728C200.767 246.11 201.009 247.479 201.481 248.757C201.953 250.034 202.645 251.194 203.518 252.171C204.39 253.148 205.426 253.923 206.567 254.45C207.707 254.978 208.929 255.248 210.163 255.246H295.027C295.414 255.247 295.801 255.22 296.185 255.166C298.457 254.849 300.548 253.613 302.064 251.691C303.581 249.769 304.419 247.293 304.422 244.728V72.3196C273.556 68.3126 247.837 43.6389 239.314 10.4925Z" fill="#E6E6E6"/>
<path d="M258.76 10.4926H240.333C248.814 43.0247 274.091 67.2287 304.422 71.2177V51.3382C294.286 49.6019 284.734 44.9158 276.722 37.7481C268.709 30.5804 262.515 21.1821 258.76 10.4926Z" fill="#E6E6E6"/>
<path d="M208.948 87.3695C208.606 87.3699 208.278 87.5223 208.036 87.7933C207.795 88.0642 207.659 88.4316 207.658 88.8148V113.014C207.659 113.397 207.795 113.765 208.036 114.035C208.278 114.306 208.606 114.459 208.948 114.459H296.022C296.364 114.459 296.692 114.306 296.934 114.035C297.175 113.765 297.311 113.397 297.312 113.014V88.8148C297.311 88.4316 297.175 88.0642 296.934 87.7933C296.692 87.5223 296.364 87.3699 296.022 87.3695H208.948Z" fill="white"/>
<path d="M220.235 108.502C223.976 108.502 227.008 105.105 227.008 100.914C227.008 96.7239 223.976 93.3268 220.235 93.3268C216.495 93.3268 213.463 96.7239 213.463 100.914C213.463 105.105 216.495 108.502 220.235 108.502Z" fill="#3F3D56"/>
<path d="M235.876 95.856C235.577 95.856 235.29 95.9893 235.078 96.2264C234.867 96.4636 234.748 96.7852 234.748 97.1206C234.748 97.456 234.867 97.7777 235.078 98.0148C235.29 98.252 235.577 98.3852 235.876 98.3852H289.088C289.387 98.3852 289.675 98.252 289.886 98.0148C290.098 97.7777 290.217 97.456 290.217 97.1206C290.217 96.7852 290.098 96.4636 289.886 96.2264C289.675 95.9893 289.387 95.856 289.088 95.856H235.876Z" fill="#E6E6E6"/>
<path d="M235.876 103.444C235.577 103.444 235.29 103.577 235.078 103.814C234.867 104.051 234.748 104.373 234.748 104.708C234.748 105.044 234.867 105.365 235.078 105.602C235.29 105.84 235.577 105.973 235.876 105.973H289.088C289.387 105.973 289.675 105.84 289.886 105.602C290.098 105.365 290.217 105.044 290.217 104.708C290.217 104.373 290.098 104.051 289.886 103.814C289.675 103.577 289.387 103.444 289.088 103.444H235.876Z" fill="#E6E6E6"/>
<path d="M208.948 128.921C208.606 128.921 208.278 129.073 208.036 129.344C207.795 129.615 207.659 129.983 207.658 130.366V154.565C207.659 154.948 207.795 155.316 208.036 155.586C208.278 155.857 208.606 156.01 208.948 156.01H296.022C296.364 156.01 296.692 155.857 296.934 155.586C297.175 155.316 297.311 154.948 297.312 154.565V130.366C297.311 129.983 297.175 129.615 296.934 129.344C296.692 129.073 296.364 128.921 296.022 128.921H208.948Z" fill="white"/>
<path d="M220.235 150.053C223.976 150.053 227.008 146.656 227.008 142.465C227.008 138.275 223.976 134.878 220.235 134.878C216.495 134.878 213.463 138.275 213.463 142.465C213.463 146.656 216.495 150.053 220.235 150.053Z" fill="#3F3D56"/>
<path d="M235.876 137.407C235.577 137.407 235.29 137.54 235.078 137.777C234.867 138.015 234.748 138.336 234.748 138.672C234.748 139.007 234.867 139.329 235.078 139.566C235.29 139.803 235.577 139.936 235.876 139.936H289.088C289.387 139.936 289.675 139.803 289.886 139.566C290.098 139.329 290.217 139.007 290.217 138.672C290.217 138.336 290.098 138.015 289.886 137.777C289.675 137.54 289.387 137.407 289.088 137.407H235.876Z" fill="#E6E6E6"/>
<path d="M235.876 144.995C235.577 144.995 235.29 145.128 235.078 145.365C234.867 145.602 234.748 145.924 234.748 146.259C234.748 146.595 234.867 146.916 235.078 147.153C235.29 147.391 235.577 147.524 235.876 147.524H289.088C289.387 147.524 289.675 147.391 289.886 147.153C290.098 146.916 290.217 146.595 290.217 146.259C290.217 145.924 290.098 145.602 289.886 145.365C289.675 145.128 289.387 144.995 289.088 144.995H235.876Z" fill="#E6E6E6"/>
<path d="M208.948 170.472C208.606 170.472 208.278 170.624 208.036 170.895C207.795 171.166 207.659 171.534 207.658 171.917V196.116C207.659 196.499 207.795 196.867 208.036 197.138C208.278 197.408 208.606 197.561 208.948 197.561H296.022C296.364 197.561 296.692 197.408 296.934 197.138C297.175 196.867 297.311 196.499 297.312 196.116V171.917C297.311 171.534 297.175 171.166 296.934 170.895C296.692 170.624 296.364 170.472 296.022 170.472H208.948Z" fill="white"/>
<path d="M220.235 191.604C223.976 191.604 227.008 188.207 227.008 184.016C227.008 179.826 223.976 176.429 220.235 176.429C216.495 176.429 213.463 179.826 213.463 184.016C213.463 188.207 216.495 191.604 220.235 191.604Z" fill="#3F3D56"/>
<path d="M235.876 178.958C235.577 178.958 235.29 179.091 235.078 179.328C234.867 179.566 234.748 179.887 234.748 180.223C234.748 180.558 234.867 180.88 235.078 181.117C235.29 181.354 235.577 181.487 235.876 181.487H289.088C289.387 181.487 289.675 181.354 289.886 181.117C290.098 180.88 290.217 180.558 290.217 180.223C290.217 179.887 290.098 179.566 289.886 179.328C289.675 179.091 289.387 178.958 289.088 178.958H235.876Z" fill="#E6E6E6"/>
<path d="M235.876 186.546C235.577 186.546 235.29 186.679 235.078 186.916C234.867 187.153 234.748 187.475 234.748 187.81C234.748 188.145 234.867 188.467 235.078 188.704C235.29 188.941 235.577 189.075 235.876 189.075H289.088C289.387 189.075 289.675 188.941 289.886 188.704C290.098 188.467 290.217 188.145 290.217 187.81C290.217 187.475 290.098 187.153 289.886 186.916C289.675 186.679 289.387 186.546 289.088 186.546H235.876Z" fill="#E6E6E6"/>
<path d="M252.485 246.523C261.39 246.523 268.61 238.435 268.61 228.458C268.61 218.48 261.39 210.392 252.485 210.392C243.58 210.392 236.36 218.48 236.36 228.458C236.36 238.435 243.58 246.523 252.485 246.523Z" fill="#FF7A45"/>
<path d="M262.16 228.458H253.452V218.702H251.517V228.458H242.81V230.626H251.517V240.381H253.452V230.626H262.16V228.458Z" fill="white"/>
<path d="M99.7813 234.202L100.297 238.451C100.297 238.451 113.407 243.472 110.845 245.772C108.284 248.071 87.5687 248.18 87.1373 246.87C86.7058 245.561 86.6099 239.898 87.7785 239.415C88.947 238.931 91.1073 234.071 91.1073 234.071L99.7813 234.202Z" fill="#2F2E41"/>
<path d="M113.01 146.962L104.789 204.197L100.972 238.078L88.6411 237.42L92.7513 181.172L103.321 149.265L113.01 146.962Z" fill="#2F2E41"/>
<path d="M121.818 146.962L122.992 152.225C122.992 152.225 127.396 166.04 123.579 165.383C119.762 164.725 118.001 152.883 118.001 152.883L117.414 148.607L121.818 146.962Z" fill="#FFB6B6"/>
<path d="M83.6499 144.988L92.7515 190.053L103.908 243.012L114.478 238.736L106.844 195.974C106.844 195.974 108.019 186.764 106.844 182.158C105.67 177.553 105.67 157.488 105.67 157.488L114.478 148.936V132.498L91.2835 130.186L83.6499 144.988Z" fill="#2F2E41"/>
<path d="M114.504 237.682L115.071 241.923C115.071 241.923 128.241 246.742 125.708 249.081C123.175 251.419 102.463 251.846 102.016 250.543C101.568 249.241 101.403 243.58 102.566 243.078C103.728 242.577 105.829 237.684 105.829 237.684L114.504 237.682Z" fill="#2F2E41"/>
<path d="M119.322 80.3519C124.187 80.3519 128.13 75.9337 128.13 70.4837C128.13 65.0337 124.187 60.6155 119.322 60.6155C114.458 60.6155 110.514 65.0337 110.514 70.4837C110.514 75.9337 114.458 80.3519 119.322 80.3519Z" fill="#FFB6B6"/>
<path d="M113.45 69.1679L103.468 75.0887L107.285 88.9043H111.395L113.744 85.6149L112.863 83.6414L119.909 77.7202L113.45 69.1679Z" fill="#FFB6B6"/>
<path d="M110.221 87.5884L110.074 82.1611L106.064 73.5488L90.9899 80.5164L96.2746 134.133L114.478 135.449L113.891 112.752L116.827 88.0819L115.799 81.0096L110.221 87.5884Z" fill="#FF7A45"/>
<path d="M111.395 113.904L104.325 74.3527C104.325 74.3527 88.2006 78.0493 86.7326 80.6808C85.2646 83.3123 83.2094 136.6 83.2094 136.6C83.2094 136.6 80.2734 147.126 83.2094 147.126C86.1454 147.126 97.8894 137.587 98.4766 141.206C99.0638 144.824 99.651 146.798 103.761 145.811C107.872 144.824 110.514 136.929 110.514 136.929C110.514 136.929 109.633 152.718 111.395 152.718C113.157 152.718 115.799 153.705 115.799 152.061V116.864L122.845 88.2464L115.873 81.0719L112.863 83.6413L111.395 113.904Z" fill="#2F2E41"/>
<path d="M120.937 89.0688L122.992 88.4109C122.992 88.4109 123.579 93.016 123.579 94.0028C123.579 94.9897 121.818 114.397 121.818 114.397L123.286 147.62L116.533 150.909L114.478 113.41L120.937 89.0688Z" fill="#2F2E41"/>
<path d="M110.514 71.4705C110.514 71.4705 106.991 60.2866 114.918 57.6551C122.845 55.0236 126.368 57.984 127.543 59.6287C128.773 61.3518 134.589 69.8258 131.066 71.7994C127.543 73.7731 125.928 71.306 125.928 70.3192C125.928 69.3324 120.643 70.3192 118.294 71.306C117.657 71.6029 116.956 71.6832 116.279 71.537C115.601 71.3908 114.977 71.0245 114.484 70.4837C114.484 70.4837 113.89 67.3588 112.129 69.0035C110.367 70.6482 110.514 71.4705 110.514 71.4705Z" fill="#2F2E41"/>
<path d="M137.263 155.262C137.107 154.921 136.837 154.663 136.511 154.545C136.186 154.427 135.832 154.459 135.527 154.633L116.294 165.644C115.99 165.819 115.759 166.122 115.654 166.486C115.549 166.851 115.577 167.248 115.732 167.589L155.354 254.459C155.51 254.8 155.78 255.057 156.106 255.175C156.431 255.293 156.785 255.262 157.09 255.088L176.323 244.076C176.628 243.902 176.858 243.599 176.963 243.234C177.068 242.87 177.04 242.473 176.885 242.132L137.263 155.262Z" fill="#E6E6E6"/>
<path d="M131.634 180.274C135.374 180.274 138.406 176.877 138.406 172.686C138.406 168.496 135.374 165.099 131.634 165.099C127.894 165.099 124.861 168.496 124.861 172.686C124.861 176.877 127.894 180.274 131.634 180.274Z" fill="#FF7A45"/>
<path d="M142.772 185.989C142.635 185.69 142.399 185.465 142.114 185.361C141.829 185.258 141.519 185.286 141.253 185.438C140.986 185.591 140.785 185.856 140.693 186.175C140.6 186.494 140.625 186.841 140.761 187.14L164.975 240.227C165.042 240.375 165.135 240.506 165.248 240.614C165.36 240.722 165.491 240.804 165.632 240.855C165.773 240.906 165.922 240.926 166.07 240.913C166.218 240.9 166.362 240.854 166.494 240.778C166.626 240.703 166.743 240.599 166.839 240.472C166.936 240.346 167.009 240.199 167.054 240.041C167.1 239.883 167.117 239.716 167.105 239.551C167.093 239.385 167.052 239.224 166.985 239.076L142.772 185.989Z" fill="white"/>
<path d="M136.741 189.441C136.673 189.294 136.581 189.162 136.468 189.054C136.355 188.947 136.224 188.865 136.083 188.814C135.942 188.763 135.794 188.743 135.646 188.756C135.498 188.77 135.354 188.815 135.222 188.891C135.09 188.966 134.973 189.07 134.877 189.197C134.78 189.323 134.707 189.47 134.662 189.628C134.616 189.786 134.599 189.952 134.611 190.118C134.622 190.283 134.663 190.444 134.731 190.592L158.944 243.679C159.08 243.978 159.317 244.204 159.601 244.307C159.886 244.41 160.196 244.383 160.463 244.23C160.729 244.077 160.931 243.812 161.023 243.493C161.115 243.174 161.09 242.827 160.954 242.528L136.741 189.441Z" fill="white"/>
<path opacity="0.2" d="M92.5791 192.52L100.964 235.516L101.678 231.813L92.5791 192.52Z" fill="black"/>
<path d="M102.431 153.639C102.485 153.26 102.402 152.874 102.201 152.564C102 152.254 101.697 152.045 101.36 151.985L80.0272 148.192C79.6894 148.133 79.3442 148.226 79.0674 148.451C78.7906 148.676 78.6048 149.015 78.5508 149.393L64.9042 245.742C64.8509 246.121 64.9339 246.507 65.1349 246.817C65.3359 247.128 65.6384 247.336 65.9762 247.396L87.3086 251.189C87.6464 251.248 87.9916 251.155 88.2683 250.93C88.5451 250.705 88.7308 250.366 88.7848 249.988L102.431 153.639Z" fill="#E6E6E6"/>
<path d="M88.7222 171.593C92.4625 171.593 95.4946 168.196 95.4946 164.006C95.4946 159.815 92.4625 156.418 88.7222 156.418C84.9819 156.418 81.9498 159.815 81.9498 164.006C81.9498 168.196 84.9819 171.593 88.7222 171.593Z" fill="#FF7A45"/>
<path d="M90.7299 182.106C90.7533 181.942 90.7477 181.774 90.7132 181.612C90.6787 181.451 90.6162 181.298 90.5291 181.164C90.442 181.029 90.3321 180.915 90.2057 180.828C90.0792 180.741 89.9387 180.683 89.7922 180.657C89.6457 180.631 89.4961 180.637 89.3518 180.676C89.2076 180.715 89.0716 180.785 88.9516 180.883C88.8316 180.981 88.73 181.104 88.6526 181.246C88.5751 181.388 88.5234 181.545 88.5003 181.709L80.1607 240.589C80.1138 240.92 80.1862 241.259 80.3621 241.53C80.538 241.802 80.8029 241.984 81.0986 242.036C81.3942 242.089 81.6964 242.008 81.9386 241.811C82.1809 241.614 82.3433 241.317 82.3903 240.986L90.7299 182.106Z" fill="white"/>
<path d="M84.0412 180.917C84.0645 180.753 84.0587 180.585 84.0241 180.424C83.9895 180.262 83.9269 180.11 83.8398 179.975C83.7527 179.841 83.6429 179.727 83.5165 179.64C83.3902 179.554 83.2498 179.496 83.1034 179.469C82.957 179.443 82.8074 179.45 82.6633 179.489C82.5192 179.527 82.3832 179.598 82.2633 179.695C82.1433 179.793 82.0417 179.916 81.9642 180.057C81.8868 180.199 81.8349 180.356 81.8117 180.52L73.472 239.4C73.4486 239.564 73.4543 239.732 73.4888 239.894C73.5232 240.055 73.5858 240.208 73.6729 240.342C73.7599 240.477 73.8698 240.591 73.9963 240.678C74.1227 240.765 74.2632 240.823 74.4097 240.849C74.5562 240.875 74.7059 240.868 74.8501 240.83C74.9944 240.791 75.1304 240.72 75.2503 240.623C75.3703 240.525 75.4719 240.402 75.5494 240.26C75.6268 240.118 75.6785 239.961 75.7016 239.797L84.0412 180.917Z" fill="white"/>
<path d="M93.1157 138.652L94.2901 143.915C94.2901 143.915 98.694 157.73 94.8773 157.072C91.0605 156.414 89.2989 144.573 89.2989 144.573L88.7117 140.296L93.1157 138.652Z" fill="#FFB6B6"/>
<path d="M90.9899 81.2145L86.8794 80.8452L74.8419 119.331L88.6412 145.975L98.3299 137.752L88.0539 119.002L95.9811 94.9895L90.9899 81.2145Z" fill="#2F2E41"/>
</g>
<defs>
<clipPath id="clip0">
<rect width="239.534" height="255.246" fill="white" transform="translate(64.8881)"/>
</clipPath>
</defs>
</svg>
