<svg width="19" height="19" viewBox="0 0 19 19" fill="none" xmlns="http://www.w3.org/2000/svg">
<path d="M14.7336 19H16.1673C16.8927 19 17.4886 18.447 17.575 17.7385L19 3.49932H14.6818V0H12.9805V3.49932H8.68818L8.94727 5.52115C10.4241 5.92724 11.8059 6.66166 12.635 7.47385C13.8786 8.70077 14.7336 9.9709 14.7336 12.0446V19ZM0 18.136V17.2806H12.9805V18.136C12.9805 18.6112 12.5918 19 12.1082 19H0.872273C0.388636 19 0 18.6112 0 18.136ZM12.9805 12.0878C12.9805 5.17553 0 5.17553 0 12.0878H12.9805ZM0.0172727 13.8245H12.9718V15.5525H0.0172727V13.8245Z" fill="#FF7A45"/>
</svg>
