<svg width="251" height="49" viewBox="0 0 251 49" fill="none" xmlns="http://www.w3.org/2000/svg">
<path d="M9.1 14.15C10.0667 12.9167 11.3167 12 12.85 11.4C14.4167 10.7667 16.2 10.45 18.2 10.45V19C17.3333 18.9 16.6167 18.85 16.05 18.85C14.0167 18.85 12.4167 19.4 11.25 20.5C10.1167 21.6 9.55 23.2833 9.55 25.55V38H0.0500002V10.9H9.1V14.15ZM47.5762 24.5C47.5762 24.5667 47.5262 25.35 47.4262 26.85H27.7262C28.1262 28.25 28.8928 29.3333 30.0262 30.1C31.1928 30.8333 32.6428 31.2 34.3762 31.2C35.6762 31.2 36.7928 31.0167 37.7262 30.65C38.6928 30.2833 39.6595 29.6833 40.6262 28.85L45.6262 34.05C42.9928 36.9833 39.1428 38.45 34.0762 38.45C30.9095 38.45 28.1262 37.85 25.7262 36.65C23.3262 35.45 21.4595 33.7833 20.1262 31.65C18.8262 29.5167 18.1762 27.1 18.1762 24.4C18.1762 21.7333 18.8095 19.35 20.0762 17.25C21.3762 15.1167 23.1595 13.45 25.4262 12.25C27.6928 11.05 30.2428 10.45 33.0762 10.45C35.7762 10.45 38.2262 11.0167 40.4262 12.15C42.6262 13.25 44.3595 14.8667 45.6262 17C46.9262 19.1 47.5762 21.6 47.5762 24.5ZM33.1262 17.2C31.6595 17.2 30.4262 17.6167 29.4262 18.45C28.4595 19.2833 27.8428 20.4167 27.5762 21.85H38.6762C38.4095 20.4167 37.7762 19.2833 36.7762 18.45C35.8095 17.6167 34.5928 17.2 33.1262 17.2ZM59.8063 38.45C57.5396 38.45 55.3063 38.2 53.1063 37.7C50.9063 37.1667 49.1396 36.4833 47.8063 35.65L50.6563 29.15C51.8896 29.9167 53.3563 30.5333 55.0563 31C56.7563 31.4333 58.4396 31.65 60.1062 31.65C61.6396 31.65 62.7229 31.5 63.3563 31.2C64.0229 30.8667 64.3563 30.4 64.3563 29.8C64.3563 29.2 63.9563 28.7833 63.1563 28.55C62.3896 28.2833 61.1563 28.0333 59.4563 27.8C57.2896 27.5333 55.4396 27.1833 53.9063 26.75C52.4063 26.3167 51.1063 25.5167 50.0063 24.35C48.9063 23.1833 48.3563 21.55 48.3563 19.45C48.3563 17.7167 48.8729 16.1833 49.9063 14.85C50.9396 13.4833 52.4396 12.4167 54.4063 11.65C56.4063 10.85 58.7896 10.45 61.5563 10.45C63.5229 10.45 65.4729 10.65 67.4063 11.05C69.3396 11.45 70.9563 12.0167 72.2563 12.75L69.4063 19.2C67.0063 17.8667 64.4063 17.2 61.6062 17.2C60.1063 17.2 59.0063 17.3833 58.3063 17.75C57.6063 18.0833 57.2563 18.5333 57.2563 19.1C57.2563 19.7333 57.6396 20.1833 58.4063 20.45C59.1729 20.6833 60.4396 20.9333 62.2063 21.2C64.4396 21.5333 66.2896 21.9167 67.7563 22.35C69.2229 22.7833 70.4896 23.5833 71.5563 24.75C72.6563 25.8833 73.2063 27.4833 73.2063 29.55C73.2063 31.25 72.6896 32.7833 71.6563 34.15C70.6229 35.4833 69.0896 36.5333 67.0563 37.3C65.0563 38.0667 62.6396 38.45 59.8063 38.45ZM94 36.9C93.2 37.4 92.2167 37.7833 91.05 38.05C89.9167 38.3167 88.7 38.45 87.4 38.45C83.8667 38.45 81.15 37.5833 79.25 35.85C77.35 34.1167 76.4 31.5333 76.4 28.1V19H72.45V11.9H76.4V4.85H85.9V11.9H92.1V19H85.9V28C85.9 28.9667 86.15 29.7333 86.65 30.3C87.1833 30.8333 87.8833 31.1 88.75 31.1C89.85 31.1 90.8167 30.8167 91.65 30.25L94 36.9ZM108.482 38.45C105.582 38.45 102.965 37.85 100.632 36.65C98.2987 35.45 96.4654 33.7833 95.132 31.65C93.832 29.5167 93.182 27.1 93.182 24.4C93.182 21.7333 93.832 19.3333 95.132 17.2C96.4654 15.0667 98.282 13.4167 100.582 12.25C102.915 11.05 105.549 10.45 108.482 10.45C111.415 10.45 114.049 11.05 116.382 12.25C118.715 13.4167 120.532 15.0667 121.832 17.2C123.132 19.3 123.782 21.7 123.782 24.4C123.782 27.1 123.132 29.5167 121.832 31.65C120.532 33.7833 118.715 35.45 116.382 36.65C114.049 37.85 111.415 38.45 108.482 38.45ZM108.482 30.9C110.149 30.9 111.515 30.3333 112.582 29.2C113.649 28.0333 114.182 26.4333 114.182 24.4C114.182 22.4 113.649 20.8333 112.582 19.7C111.515 18.5667 110.149 18 108.482 18C106.815 18 105.449 18.5667 104.382 19.7C103.315 20.8333 102.782 22.4 102.782 24.4C102.782 26.4333 103.315 28.0333 104.382 29.2C105.449 30.3333 106.815 30.9 108.482 30.9ZM126.183 0.899998H135.683V38H126.183V0.899998ZM153.457 38.45C150.557 38.45 147.94 37.85 145.607 36.65C143.273 35.45 141.44 33.7833 140.107 31.65C138.807 29.5167 138.157 27.1 138.157 24.4C138.157 21.7333 138.807 19.3333 140.107 17.2C141.44 15.0667 143.257 13.4167 145.557 12.25C147.89 11.05 150.523 10.45 153.457 10.45C156.39 10.45 159.023 11.05 161.357 12.25C163.69 13.4167 165.507 15.0667 166.807 17.2C168.107 19.3 168.757 21.7 168.757 24.4C168.757 27.1 168.107 29.5167 166.807 31.65C165.507 33.7833 163.69 35.45 161.357 36.65C159.023 37.85 156.39 38.45 153.457 38.45ZM153.457 30.9C155.123 30.9 156.49 30.3333 157.557 29.2C158.623 28.0333 159.157 26.4333 159.157 24.4C159.157 22.4 158.623 20.8333 157.557 19.7C156.49 18.5667 155.123 18 153.457 18C151.79 18 150.423 18.5667 149.357 19.7C148.29 20.8333 147.757 22.4 147.757 24.4C147.757 26.4333 148.29 28.0333 149.357 29.2C150.423 30.3333 151.79 30.9 153.457 30.9ZM200.307 10.9V33.05C200.307 38.0833 198.941 41.85 196.207 44.35C193.474 46.8833 189.541 48.15 184.407 48.15C181.741 48.15 179.241 47.85 176.907 47.25C174.574 46.65 172.591 45.7667 170.957 44.6L174.407 37.95C175.507 38.85 176.891 39.55 178.557 40.05C180.257 40.5833 181.924 40.85 183.557 40.85C186.057 40.85 187.891 40.3 189.057 39.2C190.224 38.1 190.807 36.4667 190.807 34.3V33.4C188.974 35.5333 186.291 36.6 182.757 36.6C180.357 36.6 178.141 36.0667 176.107 35C174.074 33.9 172.457 32.3667 171.257 30.4C170.057 28.4 169.457 26.1 169.457 23.5C169.457 20.9333 170.057 18.6667 171.257 16.7C172.457 14.7 174.074 13.1667 176.107 12.1C178.141 11 180.357 10.45 182.757 10.45C186.624 10.45 189.457 11.7 191.257 14.2V10.9H200.307ZM185.007 29.05C186.707 29.05 188.107 28.5333 189.207 27.5C190.341 26.4667 190.907 25.1333 190.907 23.5C190.907 21.8667 190.357 20.55 189.257 19.55C188.157 18.5167 186.741 18 185.007 18C183.274 18 181.841 18.5167 180.707 19.55C179.607 20.55 179.057 21.8667 179.057 23.5C179.057 25.1333 179.624 26.4667 180.757 27.5C181.891 28.5333 183.307 29.05 185.007 29.05ZM232.961 10.9L221.261 39.1C219.895 42.4333 218.228 44.7667 216.261 46.1C214.295 47.4667 211.895 48.15 209.061 48.15C207.628 48.15 206.178 47.9167 204.711 47.45C203.278 47.0167 202.111 46.4333 201.211 45.7L204.511 39.05C205.045 39.55 205.678 39.9333 206.411 40.2C207.178 40.5 207.945 40.65 208.711 40.65C209.611 40.65 210.345 40.4667 210.911 40.1C211.511 39.7333 212.011 39.15 212.411 38.35L200.811 10.9H210.561L217.211 27.45L223.911 10.9H232.961Z" fill="#F9F9F9"/>
<path d="M241.647 38.72C239.087 38.72 236.927 37.8667 235.167 36.16C233.407 34.4533 232.527 32.2933 232.527 29.68C232.527 27.0133 233.381 24.8533 235.087 23.2C236.847 21.5467 239.034 20.72 241.647 20.72C244.314 20.72 246.501 21.5467 248.207 23.2C249.914 24.8533 250.767 27.0133 250.767 29.68C250.767 32.2933 249.887 34.4533 248.127 36.16C246.421 37.8667 244.261 38.72 241.647 38.72Z" fill="#FF7A45"/>
</svg>
