<svg width="319" height="272" viewBox="0 0 319 272" fill="none" xmlns="http://www.w3.org/2000/svg">
<path d="M227.896 61.5789H225.629C225.182 61.5789 224.819 61.9512 224.819 62.4105V93.6521C224.819 94.1114 225.182 94.4837 225.629 94.4837H227.896C228.343 94.4837 228.705 94.1114 228.705 93.6521V62.4105C228.705 61.9512 228.343 61.5789 227.896 61.5789Z" fill="#3F3D56"/>
<path d="M213.135 0H110.71C103.099 0 96.9292 6.33969 96.9292 14.1601V257.295C96.9292 265.116 103.099 271.455 110.71 271.455H213.135C220.746 271.455 226.915 265.116 226.915 257.295V14.1601C226.915 6.33969 220.746 0 213.135 0Z" fill="#3F3D56"/>
<path d="M208.823 7.07062H193.913V8.91372C193.913 10.061 193.693 11.197 193.265 12.2569C192.838 13.3167 192.211 14.2797 191.422 15.0907C190.632 15.9017 189.694 16.5449 188.663 16.9835C187.631 17.4221 186.525 17.6476 185.409 17.6469H137.989C136.872 17.6476 135.766 17.4221 134.735 16.9835C133.703 16.5449 132.766 15.9017 131.976 15.0907C131.186 14.2797 130.56 13.3167 130.132 12.2569C129.705 11.197 129.485 10.061 129.485 8.91372V7.07062H115.524C112.786 7.07062 110.16 8.18823 108.224 10.1776C106.288 12.167 105.201 14.8651 105.201 17.6785V253.795C105.201 256.609 106.288 259.307 108.224 261.296C110.16 263.286 112.786 264.403 115.524 264.403H208.823C211.561 264.403 214.187 263.286 216.123 261.296C218.059 259.307 219.147 256.609 219.147 253.795V17.6967C219.149 16.3021 218.884 14.9207 218.366 13.6316C217.848 12.3425 217.088 11.171 216.129 10.184C215.171 9.19706 214.032 8.41406 212.778 7.87983C211.524 7.3456 210.18 7.07062 208.823 7.07062Z" fill="white"/>
<path d="M166.168 8.10675H150.752C149.997 8.10675 149.384 8.736 149.384 9.51223V10.4866C149.384 11.2628 149.997 11.8921 150.752 11.8921H166.168C166.923 11.8921 167.536 11.2628 167.536 10.4866V9.51223C167.536 8.736 166.923 8.10675 166.168 8.10675Z" fill="#E6E8EC"/>
<path d="M172.373 12.1492C173.528 12.1492 174.465 11.1868 174.465 9.9996C174.465 8.81239 173.528 7.84998 172.373 7.84998C171.217 7.84998 170.281 8.81239 170.281 9.9996C170.281 11.1868 171.217 12.1492 172.373 12.1492Z" fill="#E6E8EC"/>
<path d="M162.716 164.327C176.297 164.327 187.306 153.015 187.306 139.06C187.306 125.106 176.297 113.793 162.716 113.793C149.136 113.793 138.126 125.106 138.126 139.06C138.126 153.015 149.136 164.327 162.716 164.327Z" fill="white"/>
<path d="M195.059 135.532C195.058 142.211 193.131 148.74 189.519 154.294C185.908 159.847 180.775 164.175 174.77 166.731C168.764 169.287 162.156 169.955 155.781 168.652C149.406 167.349 143.55 164.132 138.954 159.409C134.358 154.686 131.228 148.669 129.96 142.118C128.692 135.567 129.343 128.777 131.831 122.607C134.318 116.436 138.531 111.162 143.936 107.451C149.34 103.741 155.695 101.76 162.195 101.761C166.511 101.761 170.784 102.634 174.771 104.332C178.759 106.029 182.382 108.517 185.433 111.652C188.485 114.788 190.906 118.511 192.557 122.609C194.209 126.706 195.059 131.097 195.059 135.532ZM158.396 153.407L182.775 128.357C182.972 128.155 183.128 127.914 183.235 127.65C183.342 127.386 183.397 127.102 183.397 126.816C183.397 126.529 183.342 126.246 183.235 125.981C183.128 125.717 182.972 125.477 182.775 125.275L179.775 122.215C179.579 122.012 179.345 121.852 179.088 121.742C178.831 121.632 178.556 121.576 178.277 121.576C177.999 121.576 177.723 121.632 177.466 121.742C177.209 121.852 176.976 122.012 176.78 122.215L156.896 142.647L147.612 133.084C147.213 132.677 146.674 132.448 146.112 132.448C145.55 132.448 145.011 132.677 144.612 133.084L141.613 136.185C141.216 136.594 140.994 137.148 140.994 137.726C140.994 138.303 141.216 138.857 141.613 139.267L155.397 153.426C155.593 153.628 155.827 153.789 156.085 153.899C156.342 154.009 156.618 154.065 156.896 154.065C157.175 154.065 157.451 154.009 157.708 153.899C157.966 153.789 158.2 153.628 158.396 153.426L158.396 153.407Z" fill="#FF7A45"/>
<path d="M100.999 53.516H100.658C100.211 53.516 99.8491 53.8884 99.8491 54.3477V62.4221C99.8491 62.8814 100.211 63.2538 100.658 63.2538H100.999C101.446 63.2538 101.808 62.8814 101.808 62.4221V54.3477C101.808 53.8884 101.446 53.516 100.999 53.516Z" fill="#3F3D56"/>
<path d="M101.176 71.3467H100.587C100.14 71.3467 99.7778 71.7191 99.7778 72.1784V87.4629C99.7778 87.9222 100.14 88.2945 100.587 88.2945H101.176C101.623 88.2945 101.985 87.9222 101.985 87.4629V72.1784C101.985 71.7191 101.623 71.3467 101.176 71.3467Z" fill="#3F3D56"/>
<path d="M101.105 94.2248H100.623C100.176 94.2248 99.8135 94.5971 99.8135 95.0564V110.487C99.8135 110.946 100.176 111.318 100.623 111.318H101.105C101.552 111.318 101.915 110.946 101.915 110.487V95.0564C101.915 94.5971 101.552 94.2248 101.105 94.2248Z" fill="#3F3D56"/>
<path d="M73.7764 139.426C73.8325 139.482 73.9047 139.517 73.9821 139.528C74.0596 139.538 74.1381 139.522 74.2062 139.483C74.061 139.485 73.9163 139.466 73.7764 139.426Z" fill="url(#paint0_linear)"/>
<path d="M90.0216 145.955L89.5975 148.329L89.2702 150.145L88.675 153.466L82.9038 157.618C82.9038 157.618 82.3835 157.16 81.5254 156.439C79.1602 154.438 74.1891 150.363 70.5388 148.176C69.5999 147.561 68.584 147.08 67.519 146.746L90.0216 145.955Z" fill="#FEB9B9"/>
<path d="M85.7875 147.721C85.7875 147.721 92.5166 148.908 92.9107 145.955C93.3047 143.002 89.447 141.406 86.1777 141.208C82.9084 141.009 63.2863 142.395 63.2863 142.395C63.2863 142.395 59.8251 147.138 72.3255 147.932L85.7875 147.721Z" fill="#3F3D56"/>
<path d="M100.503 50.2794H65.3008V93.1716H100.503V50.2794Z" fill="#2F2E41"/>
<path opacity="0.1" d="M100.503 50.4741H65.3008V93.3662H100.503V50.4741Z" fill="black"/>
<path d="M24.044 123.705C23.4643 123.855 22.7235 124.431 21.8997 125.264C18.3519 128.874 13.2705 137.344 13.2705 137.344C6.774 129.392 13.9629 123.109 17.0272 120.95C17.7722 120.428 18.2727 120.14 18.2727 120.14L24.044 123.705Z" fill="#FEB9B9"/>
<path d="M89.6351 63.8167C89.6351 63.8167 91.3669 76.2685 97.3298 79.2334C103.293 82.1983 89.6351 87.7396 89.6351 87.7396L70.9775 80.6185C70.9775 80.6185 81.558 77.0594 79.4409 66.583L89.6351 63.8167Z" fill="#FEB9B9"/>
<path d="M69.6297 138.729L69.2077 141.094L68.8649 142.917L68.2697 146.239L62.4984 150.387C62.4984 150.387 61.9782 149.933 61.12 149.212C58.7548 147.211 53.7841 143.136 50.1282 140.949C49.1897 140.333 48.1737 139.852 47.1084 139.519L69.6297 138.729Z" fill="#FEB9B9"/>
<path d="M64.6372 141.646C64.6372 141.646 70.6763 141.69 71.0396 138.729C71.403 135.767 67.7485 134.18 64.6372 133.981C61.5259 133.783 42.622 135.26 42.622 135.26C42.622 135.26 39.9401 140.853 51.8307 141.646L64.6372 141.646Z" fill="#2F2E41"/>
<path d="M106.98 188.167C106.716 188.033 106.452 187.895 106.192 187.762L105.482 186.842L96.1749 174.715V174.925C96.112 176.951 95.4419 192.999 90.2146 194.482C84.6366 196.062 77.9076 196.459 74.8401 185.785C71.7726 175.112 66.1678 151.788 60.4121 150.403L68.9741 143.189C68.9741 143.189 74.6429 150.002 76.9526 156.524C76.866 156.119 72.9513 137.324 76.1641 133.998H104.253C104.253 133.998 108.59 146.689 111.562 152.976C113.876 157.857 117.349 169.397 119.585 177.206C121.798 184.918 114.021 191.727 106.98 188.167Z" fill="#3F3D56"/>
<path opacity="0.1" d="M106.18 137.542C101.843 140.179 82.8073 139.105 76.6143 138.676L74.927 138.55C74.7457 138.55 74.9546 138.445 74.9546 138.445L75.1281 136.651L79.7444 124.596L104.461 109.868C103.96 111.419 103.795 113.793 103.834 116.511C103.948 125.244 106.18 137.542 106.18 137.542Z" fill="black"/>
<path d="M106.18 136.947C101.844 139.584 82.8076 138.51 76.6147 138.081L74.9274 137.959L74.6475 137.935L74.9549 137.854L76.4765 137.449L79.7444 124.009L104.461 109.285C103.96 110.836 103.795 113.21 103.834 115.928C103.949 124.653 106.18 136.947 106.18 136.947Z" fill="#EFEFEF"/>
<path opacity="0.1" d="M103.818 115.92C98.7921 117.11 87.731 120.605 83.4813 129.044C80.6471 134.662 78.2621 137.072 76.5984 138.08L74.9111 137.959C74.9222 137.924 74.9314 137.889 74.9387 137.853L76.4602 137.448L79.7281 124.009L104.445 109.285C103.95 110.828 103.779 113.202 103.818 115.92Z" fill="black"/>
<path opacity="0.1" d="M18.2728 120.149L24.0441 123.705C23.4645 123.855 22.7237 124.432 21.8998 125.265C21.4188 123.823 18.4008 121.81 17.0273 120.951C17.772 120.436 18.2728 120.149 18.2728 120.149Z" fill="black"/>
<path opacity="0.1" d="M73.8829 138.19C73.8196 138.224 73.7476 138.237 73.677 138.227C73.6064 138.217 73.5406 138.184 73.4888 138.133C73.6167 138.172 73.7495 138.191 73.8829 138.19Z" fill="black"/>
<path d="M86.9428 78.4434C86.9428 78.4434 81.7473 79.0347 78.0931 75.0816C78.0931 75.0816 62.7186 79.6303 57.5118 89.9066C52.305 100.183 16.9087 120.347 16.9087 120.347C16.9087 120.347 23.0663 123.904 22.4866 125.682L45.7643 111.845C45.7643 111.845 54.0425 105.72 56.3409 104.335C58.6393 102.95 71.3481 94.4517 74.0406 117.577C76.7331 140.702 74.0406 137.935 74.0406 137.935C74.0406 137.935 77.8881 139.321 83.4661 128.25C89.044 117.179 106.354 114.611 106.354 114.611L107.315 102.954C107.315 102.954 110.749 95.2249 108.104 92.017C107.302 91.0672 106.769 89.9101 106.562 88.6711C106.125 85.7102 106.562 80.7765 112.688 76.6773C122.114 70.3502 125.768 65.2142 125.768 65.2142C125.768 65.2142 125.961 61.4553 120.19 59.6769C114.419 57.8984 90.9519 48.2137 90.9519 48.2137L90.1633 51.5756L108.679 65.0035C108.679 65.0035 99.447 72.6995 92.1228 72.5132C92.1224 72.5132 93.4824 78.2448 86.9428 78.4434Z" fill="#FF7A45"/>
<path opacity="0.1" d="M90.5061 69.2363C90.0512 67.6519 89.6957 66.0391 89.4419 64.4079L79.2477 67.1753C79.6971 69.175 79.6168 71.2619 79.0151 73.2189C81.0993 73.7903 83.3013 73.7173 85.3453 73.0089C87.3893 72.3004 89.1845 70.9882 90.5061 69.2363Z" fill="black"/>
<path d="M82.0391 73.0079C88.0937 73.0079 93.002 67.9644 93.002 61.743C93.002 55.5216 88.0937 50.4781 82.0391 50.4781C75.9844 50.4781 71.0762 55.5216 71.0762 61.743C71.0762 67.9644 75.9844 73.0079 82.0391 73.0079Z" fill="#FEB9B9"/>
<path opacity="0.1" d="M93.9634 152.464C93.9634 152.464 100.31 165.313 98.3863 169.262L93.9634 152.464Z" fill="black"/>
<path d="M87.8688 35.7256C90.9119 36.0823 93.8016 37.4227 96.7977 38.156C97.5465 38.3952 98.3436 38.4259 99.1077 38.245C100.271 37.8763 101.217 36.6249 102.423 36.6612C103.165 36.6855 103.822 37.2041 104.433 37.702C105.413 38.4727 106.336 39.3176 107.193 40.2297C109.258 42.5344 110.539 45.6374 112.423 48.1447C114.308 50.652 116.995 53.5923 119.671 52.4425C117.85 59.7335 112.171 64.2946 105.718 64.7486C103.144 64.9302 100.507 64.38 98.0156 65.1535C97.3951 65.4149 96.7398 65.5787 96.0717 65.6395C94.6368 65.6395 93.4817 64.2866 92.5868 62.9701C90.4896 59.8755 88.8302 56.3637 86.4689 53.5403C85.6803 52.6048 84.7699 51.7176 83.6661 51.5476C82.5623 51.3777 81.5494 51.9202 80.5679 52.4428C78.9477 53.3057 77.2922 54.1966 76.0347 55.6834C74.7772 57.1703 73.9848 59.3653 74.505 61.3544C74.785 62.4319 75.424 63.4041 75.4353 64.53C75.459 66.3284 73.9137 67.6409 73.6101 69.3907C73.5416 70.1257 73.5166 70.8643 73.5352 71.6024C73.4013 73.9993 71.8741 75.9605 70.2836 77.4716C69.6608 78.0549 68.9759 78.6868 68.7935 79.59C68.6712 80.2096 68.7935 80.8611 68.7147 81.4898C68.4821 83.0452 66.9722 83.8351 65.6359 84.0378C64.0745 84.2753 62.4798 84.081 61.0158 83.4749C62.8844 82.5669 64.0355 79.9833 63.6019 77.6703C63.0067 74.462 59.8689 72.1573 60.1382 68.8928C60.2857 67.8911 60.578 66.9177 61.0055 66.0048C61.6893 64.2407 62.1863 62.406 62.4878 60.5325C62.7243 59.0864 62.8388 57.5512 62.397 56.1701C62.0029 54.9142 61.1791 53.9141 60.481 52.8525C59.5351 51.4084 58.7883 49.8367 58.2618 48.1821C58.071 47.6913 57.9983 47.1605 58.0497 46.6346C58.2078 46.0136 58.5444 45.4559 59.0157 45.0345C60.7306 43.1823 62.5635 41.2593 64.8619 40.7287C65.9585 40.5416 67.0737 40.498 68.181 40.5991C70.1067 40.6611 72.0343 40.5771 73.948 40.3477C75.5247 40.1574 78.1893 40.1818 79.5259 39.1326C80.7715 38.152 81.4734 36.9208 83.0066 36.2973C84.5593 35.7059 86.2284 35.5099 87.8709 35.726L87.8688 35.7256Z" fill="#2F2E41"/>
<path d="M291.571 270.781C300.354 270.781 307.474 269.544 307.474 268.017C307.474 266.491 300.354 265.254 291.571 265.254C282.788 265.254 275.668 266.491 275.668 268.017C275.668 269.544 282.788 270.781 291.571 270.781Z" fill="#FF7A45"/>
<path d="M298.149 263.498C298.873 262.89 299.402 262.069 299.663 261.145C299.861 260.215 299.474 259.112 298.603 258.752C297.63 258.37 296.589 259.065 295.803 259.764C295.017 260.462 294.11 261.263 293.078 261.113C293.609 260.619 294.007 259.993 294.233 259.294C294.458 258.595 294.504 257.848 294.365 257.126C294.318 256.827 294.194 256.546 294.005 256.313C293.467 255.72 292.485 255.972 291.842 256.443C289.785 257.927 289.212 260.802 289.2 263.38C288.99 262.45 289.168 261.478 289.16 260.535C289.152 259.593 288.903 258.502 288.116 258.004C287.63 257.736 287.085 257.604 286.534 257.622C285.609 257.585 284.58 257.683 283.948 258.377C283.157 259.239 283.37 260.686 284.05 261.629C284.731 262.571 285.771 263.177 286.728 263.831C287.493 264.3 288.145 264.941 288.637 265.705C288.696 265.812 288.743 265.925 288.778 266.042H294.556C295.859 265.365 297.067 264.509 298.148 263.5L298.149 263.498Z" fill="#FF7A45"/>
<path d="M75.3568 272C81.153 272 85.8517 271.184 85.8517 270.177C85.8517 269.169 81.153 268.353 75.3568 268.353C69.5606 268.353 64.8618 269.169 64.8618 270.177C64.8618 271.184 69.5606 272 75.3568 272Z" fill="#EFEFEF"/>
<path d="M79.6973 267.194C80.1756 266.792 80.5241 266.251 80.6969 265.641C80.773 265.335 80.7451 265.012 80.6179 264.725C80.4907 264.437 80.2718 264.203 79.9974 264.061C79.3552 263.809 78.6688 264.268 78.1496 264.729C77.6304 265.191 77.0324 265.719 76.3514 265.62C76.7019 265.294 76.9643 264.88 77.113 264.419C77.2616 263.958 77.2915 263.465 77.1996 262.989C77.169 262.791 77.0869 262.606 76.9621 262.453C76.6086 262.061 75.9597 262.227 75.5346 262.538C74.1774 263.519 73.7988 265.413 73.7911 267.116C73.6529 266.502 73.7702 265.861 73.7649 265.239C73.7596 264.617 73.5953 263.898 73.0757 263.569C72.7552 263.392 72.3951 263.305 72.0316 263.317C71.4209 263.293 70.7423 263.357 70.3246 263.816C69.8025 264.384 69.9435 265.339 70.3924 265.961C70.8413 266.583 71.5276 266.983 72.1596 267.414C72.6647 267.723 73.0956 268.145 73.4203 268.649C73.4594 268.719 73.4909 268.794 73.5143 268.871H77.3275C78.1874 268.424 78.9845 267.859 79.6973 267.192V267.194Z" fill="#EFEFEF"/>
<path d="M16.0037 272C21.7999 272 26.4987 271.184 26.4987 270.177C26.4987 269.169 21.7999 268.353 16.0037 268.353C10.2075 268.353 5.50879 269.169 5.50879 270.177C5.50879 271.184 10.2075 272 16.0037 272Z" fill="#EFEFEF"/>
<path d="M20.3443 267.194C20.8226 266.792 21.1711 266.251 21.3438 265.641C21.4199 265.335 21.3921 265.012 21.2648 264.725C21.1376 264.437 20.9187 264.203 20.6444 264.061C20.0022 263.809 19.3158 264.268 18.7966 264.729C18.2774 265.191 17.6794 265.719 16.9983 265.62C17.3489 265.294 17.6113 264.88 17.7599 264.419C17.9086 263.958 17.9385 263.465 17.8466 262.989C17.816 262.791 17.7339 262.606 17.6091 262.453C17.2556 262.061 16.6067 262.227 16.1815 262.538C14.8243 263.519 14.4458 265.413 14.438 267.116C14.2998 266.502 14.4172 265.861 14.4119 265.239C14.4066 264.617 14.2422 263.898 13.7227 263.569C13.4022 263.392 13.0421 263.305 12.6786 263.317C12.0679 263.293 11.3893 263.357 10.9715 263.816C10.4495 264.384 10.5905 265.339 11.0394 265.961C11.4882 266.583 12.1746 266.983 12.8066 267.414C13.3117 267.723 13.7426 268.145 14.0673 268.649C14.1064 268.719 14.1379 268.794 14.1613 268.871H17.9745C18.8343 268.424 19.6314 267.859 20.3443 267.192V267.194Z" fill="#EFEFEF"/>
<path d="M319 270.959H0V271.62H319V270.959Z" fill="#2F2E41"/>
<path d="M303.428 18.3489C303.428 18.3489 270.127 16.2843 274.051 40.2617C274.051 40.2617 273.26 44.5003 277.009 46.4226C277.009 46.4226 277.068 44.6466 280.426 45.252C281.622 45.4556 282.836 45.5156 284.045 45.4307C285.676 45.3205 287.228 44.6687 288.466 43.5735C288.466 43.5735 297.828 39.5989 301.467 23.8797C301.467 23.8797 304.16 20.4499 304.053 19.5678L298.433 22.0344C298.433 22.0344 300.355 26.2 298.829 29.661C298.829 29.661 298.647 22.1833 297.567 22.346C297.35 22.3787 294.648 23.7885 294.648 23.7885C294.648 23.7885 297.951 31.0426 295.459 36.318C295.459 36.318 296.404 27.3774 293.616 24.313L289.661 26.6863C289.661 26.6863 293.521 34.1804 290.903 40.2966C290.903 40.2966 291.575 30.9169 288.827 27.2634L285.243 30.1364C285.243 30.1364 288.87 37.5205 286.659 42.5933C286.659 42.5933 286.371 31.6774 284.468 30.8526C284.468 30.8526 281.332 33.6973 280.853 34.8595C280.853 34.8595 283.337 40.2239 281.794 43.0523C281.794 43.0523 280.849 35.778 280.074 35.7373C280.074 35.7373 276.949 40.557 276.625 43.8651C276.625 43.8651 276.76 38.9517 279.318 35.2822C279.318 35.2822 276.297 35.8146 274.533 37.8244C274.533 37.8244 275.019 34.419 280.089 34.1183C280.089 34.1183 282.672 30.4608 283.36 30.2414C283.36 30.2414 278.321 29.8056 275.264 31.2005C275.264 31.2005 277.953 27.9861 284.286 29.449L287.825 26.4782C287.825 26.4782 281.189 25.5474 278.373 26.5759C278.373 26.5759 281.612 23.7312 288.779 25.8038L292.631 23.4384C292.631 23.4384 286.971 22.1866 283.602 22.6257C283.602 22.6257 287.161 20.6547 293.762 22.7924L296.53 21.5213C296.53 21.5213 292.386 20.6841 291.171 20.5501C289.957 20.4161 289.894 20.0747 289.894 20.0747C292.52 19.6249 295.216 19.933 297.681 20.9649C297.681 20.9649 303.527 18.727 303.428 18.3489Z" fill="#FF7A45"/>
<path d="M257.801 5.65496C257.801 5.65496 242.773 4.72415 244.528 15.5587C244.528 15.5587 244.175 17.473 245.865 18.3424C245.865 18.3424 245.893 17.5296 247.411 17.81C247.951 17.9033 248.499 17.9306 249.045 17.8913C249.782 17.8412 250.484 17.5442 251.042 17.0459C251.042 17.0459 255.274 15.2496 256.919 8.14597C256.919 8.14597 258.133 6.59776 258.085 6.19936L255.546 7.31285C255.546 7.31285 256.412 9.19444 255.732 10.759C255.732 10.759 255.649 7.38148 255.163 7.4592C255.064 7.4592 253.841 8.11292 253.841 8.11292C253.841 8.11292 255.337 11.3924 254.209 13.7741C254.209 13.7741 254.636 9.73448 253.375 8.34862L251.587 9.43813C251.587 9.43813 253.331 12.8233 252.149 15.587C252.149 15.587 252.454 11.3484 251.212 9.69853L249.594 10.999C249.594 10.999 251.231 14.3355 250.235 16.6282C250.235 16.6282 250.1 11.6945 249.242 11.3208C249.242 11.3208 247.826 12.605 247.608 13.1334C247.608 13.1334 248.731 15.5718 248.036 16.8356C248.036 16.8356 247.608 13.5478 247.245 13.5307C247.245 13.5307 245.833 15.7098 245.686 17.1882C245.757 15.809 246.177 14.4726 246.905 13.3114C246.09 13.47 245.338 13.8697 244.741 14.4615C244.741 14.4615 244.963 12.9213 247.253 12.7873C247.253 12.7873 248.439 11.1334 248.732 11.0317C248.732 11.0317 246.454 10.8367 245.073 11.4675C245.073 11.4675 246.287 10.0167 249.147 10.6751L250.729 9.3339C250.729 9.3339 247.728 8.92352 246.456 9.37603C246.456 9.37603 247.919 8.09185 251.159 9.02665L252.899 7.95784C252.899 7.95784 250.34 7.39311 248.817 7.59467C248.817 7.59467 250.427 6.70453 253.409 7.6673L254.655 7.09421C254.655 7.09421 252.782 6.71615 252.231 6.65514C251.679 6.59412 251.653 6.43978 251.653 6.43978C252.84 6.23683 254.059 6.37755 255.173 6.84617C255.173 6.84617 257.848 5.8242 257.801 5.65496Z" fill="#3F3D56"/>
<path d="M26.0382 171.057C26.0382 171.057 11.0094 170.126 12.7653 180.961C12.7653 180.961 12.4118 182.875 14.1019 183.745C14.1019 183.745 14.1295 182.932 15.6482 183.212C16.1876 183.306 16.7358 183.333 17.2814 183.294C18.0192 183.243 18.7207 182.946 19.2787 182.448C19.2787 182.448 23.5104 180.652 25.1557 173.548C25.1557 173.548 26.3697 172 26.322 171.602L23.7829 172.715C23.7829 172.715 24.6492 174.597 23.9688 176.161C23.9688 176.161 23.8858 172.784 23.3994 172.861C23.3005 172.861 22.0783 173.515 22.0783 173.515C22.0783 173.515 23.5733 176.795 22.4462 179.176C22.4462 179.176 22.8732 175.137 21.6118 173.751L19.8241 174.84C19.8241 174.84 21.5683 178.226 20.3857 180.989C20.3857 180.989 20.6904 176.751 19.4484 175.101L17.8307 176.401C17.8307 176.401 19.4682 179.738 18.4715 182.03C18.4715 182.03 18.3372 177.097 17.4787 176.723C17.4787 176.723 16.0628 178.007 15.8451 178.536C15.8451 178.536 16.9683 180.974 16.2724 182.238C16.2724 182.238 15.8451 178.95 15.4814 178.933C15.4814 178.933 14.0694 181.112 13.9231 182.59C13.9938 181.211 14.4138 179.875 15.1414 178.714C14.3266 178.872 13.5747 179.272 12.978 179.864C12.978 179.864 13.1996 178.324 15.4895 178.19C15.4895 178.19 16.676 176.536 16.9687 176.434C16.9687 176.434 14.6908 176.239 13.3102 176.87C13.3102 176.87 14.5243 175.419 17.384 176.077L18.9659 174.736C18.9659 174.736 15.9653 174.326 14.6929 174.778C14.6929 174.778 16.1561 173.494 19.3954 174.429L21.1357 173.36C21.1357 173.36 18.5768 172.795 17.0542 172.997C17.0542 172.997 18.6637 172.107 21.646 173.07L22.8919 172.496C22.8919 172.496 21.0187 172.118 20.4673 172.057C19.916 171.996 19.8898 171.842 19.8898 171.842C21.0771 171.639 22.2959 171.78 23.4097 172.248C23.4097 172.248 26.0845 171.226 26.0382 171.057Z" fill="#3F3D56"/>
<defs>
<linearGradient id="paint0_linear" x1="73.9934" y1="139.531" x2="73.9934" y2="139.426" gradientUnits="userSpaceOnUse">
<stop stop-color="#808080" stop-opacity="0.251"/>
<stop offset="0.54" stop-color="#808080" stop-opacity="0.122"/>
<stop offset="1" stop-color="#808080" stop-opacity="0.102"/>
</linearGradient>
</defs>
</svg>
