<svg width="125" height="20" viewBox="0 0 125 20" fill="none" xmlns="http://www.w3.org/2000/svg">
<path d="M12.239 0L14.8086 6.90983H23.1243L16.3968 11.1803L18.9664 18.0902L12.239 13.8197L5.51146 18.0902L8.08113 11.1803L1.35364 6.90983H9.66928L12.239 0Z" fill="#FF7A45"/>
<path d="M37.4191 0L39.9888 6.90983H48.3044L41.577 11.1803L44.1466 18.0902L37.4191 13.8197L30.6916 18.0902L33.2613 11.1803L26.5338 6.90983H34.8495L37.4191 0Z" fill="#FF7A45"/>
<path d="M62.5993 0L65.169 6.90983H73.4846L66.7571 11.1803L69.3268 18.0902L62.5993 13.8197L55.8718 18.0902L58.4415 11.1803L51.714 6.90983H60.0296L62.5993 0Z" fill="#FF7A45"/>
<path d="M87.7795 0L90.3492 6.90983H98.6648L91.9373 11.1803L94.507 18.0902L87.7795 13.8197L81.052 18.0902L83.6217 11.1803L76.8942 6.90983H85.2098L87.7795 0Z" fill="#C4C4C4"/>
<path d="M112.96 0L115.529 6.90983H123.845L117.117 11.1803L119.687 18.0902L112.96 13.8197L106.232 18.0902L108.802 11.1803L102.074 6.90983H110.39L112.96 0Z" fill="#C4C4C4"/>
</svg>
